<?xml version="1.0" standalone="no"?><svg xmlns="http://www.w3.org/2000/svg" viewBox="0 0 1440 320"><path fill="#574b7d" fill-opacity="1" d="M0,288L34.3,272C68.6,256,137,224,206,186.7C274.3,149,343,107,411,106.7C480,107,549,149,617,149.3C685.7,149,754,107,823,90.7C891.4,75,960,85,1029,85.3C1097.1,85,1166,75,1234,80C1302.9,85,1371,107,1406,117.3L1440,128L1440,320L1405.7,320C1371.4,320,1303,320,1234,320C1165.7,320,1097,320,1029,320C960,320,891,320,823,320C754.3,320,686,320,617,320C548.6,320,480,320,411,320C342.9,320,274,320,206,320C137.1,320,69,320,34,320L0,320Z"></path></svg>