<?xml version="1.0" standalone="no"?><svg xmlns="http://www.w3.org/2000/svg" viewBox="0 0 1440 320"><path fill="#574b7d" fill-opacity="1" d="M0,320L26.7,288C53.3,256,107,192,160,186.7C213.3,181,267,235,320,266.7C373.3,299,427,309,480,288C533.3,267,587,213,640,202.7C693.3,192,747,224,800,202.7C853.3,181,907,107,960,69.3C1013.3,32,1067,32,1120,74.7C1173.3,117,1227,203,1280,197.3C1333.3,192,1387,96,1413,48L1440,0L1440,320L1413.3,320C1386.7,320,1333,320,1280,320C1226.7,320,1173,320,1120,320C1066.7,320,1013,320,960,320C906.7,320,853,320,800,320C746.7,320,693,320,640,320C586.7,320,533,320,480,320C426.7,320,373,320,320,320C266.7,320,213,320,160,320C106.7,320,53,320,27,320L0,320Z"></path></svg>