<?xml version="1.0" standalone="no"?><svg xmlns="http://www.w3.org/2000/svg" viewBox="0 0 1440 320"><path fill="#574b7d" fill-opacity="1" d="M0,64L26.7,96C53.3,128,107,192,160,218.7C213.3,245,267,235,320,208C373.3,181,427,139,480,122.7C533.3,107,587,117,640,122.7C693.3,128,747,128,800,154.7C853.3,181,907,235,960,245.3C1013.3,256,1067,224,1120,218.7C1173.3,213,1227,235,1280,240C1333.3,245,1387,235,1413,229.3L1440,224L1440,320L1413.3,320C1386.7,320,1333,320,1280,320C1226.7,320,1173,320,1120,320C1066.7,320,1013,320,960,320C906.7,320,853,320,800,320C746.7,320,693,320,640,320C586.7,320,533,320,480,320C426.7,320,373,320,320,320C266.7,320,213,320,160,320C106.7,320,53,320,27,320L0,320Z"></path></svg>