<svg width="20" height="20" viewBox="0 0 20 20" fill="none" xmlns="http://www.w3.org/2000/svg">
<path d="M10 0.598206C4.64844 0.598206 0.3125 4.93414 0.3125 10.2857C0.3125 15.6373 4.64844 19.9732 10 19.9732C15.3516 19.9732 19.6875 15.6373 19.6875 10.2857C19.6875 4.93414 15.3516 0.598206 10 0.598206ZM10 4.34821C11.8984 4.34821 13.4375 5.88727 13.4375 7.78571C13.4375 9.68414 11.8984 11.2232 10 11.2232C8.10156 11.2232 6.5625 9.68414 6.5625 7.78571C6.5625 5.88727 8.10156 4.34821 10 4.34821ZM10 17.7857C7.70703 17.7857 5.65234 16.7466 4.27734 15.1216C5.01172 13.7388 6.44922 12.7857 8.125 12.7857C8.21875 12.7857 8.3125 12.8013 8.40234 12.8287C8.91016 12.9927 9.44141 13.0982 10 13.0982C10.5586 13.0982 11.0938 12.9927 11.5977 12.8287C11.6875 12.8013 11.7812 12.7857 11.875 12.7857C13.5508 12.7857 14.9883 13.7388 15.7227 15.1216C14.3477 16.7466 12.293 17.7857 10 17.7857Z" fill="black"/>
</svg>
