<svg width="20" height="21" viewBox="0 0 20 21" fill="none" xmlns="http://www.w3.org/2000/svg">
<path d="M18.3375 12.145L19.9789 4.92278C20.0974 4.40133 19.7011 3.90476 19.1663 3.90476H5.52806L5.20979 2.34886C5.13049 1.96105 4.78924 1.68254 4.39337 1.68254H0.833333C0.37309 1.68254 0 2.05563 0 2.51587V3.07143C0 3.53167 0.37309 3.90476 0.833333 3.90476H3.25983L5.69899 15.8296C5.11545 16.1652 4.72222 16.7944 4.72222 17.5159C4.72222 18.5898 5.59278 19.4603 6.66667 19.4603C7.74056 19.4603 8.61111 18.5898 8.61111 17.5159C8.61111 16.9716 8.38726 16.4799 8.02695 16.127H15.3064C14.9461 16.4799 14.7222 16.9716 14.7222 17.5159C14.7222 18.5898 15.5928 19.4603 16.6667 19.4603C17.7406 19.4603 18.6111 18.5898 18.6111 17.5159C18.6111 16.746 18.1636 16.0807 17.5146 15.7657L17.7062 14.9228C17.8247 14.4013 17.4283 13.9048 16.8936 13.9048H7.57351L7.34625 12.7937H17.5249C17.914 12.7937 18.2513 12.5244 18.3375 12.145Z" fill="black"/>
</svg>
